<?xml version="1.0" encoding="utf-8"?>
<!-- Generator: Adobe Illustrator 16.0.0, SVG Export Plug-In . SVG Version: 6.00 Build 0)  -->
<!DOCTYPE svg PUBLIC "-//W3C//DTD SVG 1.1//EN" "http://www.w3.org/Graphics/SVG/1.1/DTD/svg11.dtd">
<svg version="1.1" id="Layer_1" xmlns="http://www.w3.org/2000/svg" xmlns:xlink="http://www.w3.org/1999/xlink" x="0px" y="0px"
	 width="35px" height="41px" viewBox="0 0 35 41" enable-background="new 0 0 35 41" xml:space="preserve">
<g>
	<g>
		<g>
			<path fill="#EF4823" d="M17.444,0C16.19,0,15.17,1.003,15.17,2.234c0,1.232,1.02,2.235,2.275,2.235
				c1.253,0,2.275-1.003,2.275-2.234C19.72,1.003,18.698,0,17.444,0z M17.444,3.261c-0.576,0-1.044-0.46-1.044-1.026
				c0-0.565,0.469-1.025,1.044-1.025c0.576,0,1.045,0.46,1.045,1.025C18.489,2.801,18.021,3.261,17.444,3.261z"/>
		</g>
	</g>
	<g>
		<g>
			<path fill="#EF4823" d="M21.022,4.896c-0.932,0-1.688,0.743-1.688,1.657c0,0.913,0.756,1.656,1.688,1.656
				c0.93,0,1.686-0.743,1.686-1.656C22.708,5.639,21.952,4.896,21.022,4.896z M21.022,7.001c-0.252,0-0.457-0.201-0.457-0.448
				c0-0.248,0.203-0.449,0.457-0.449c0.252,0,0.455,0.201,0.455,0.449C21.478,6.8,21.272,7.001,21.022,7.001z"/>
		</g>
	</g>
	<g>
		<g>
			<path fill="#EF4823" d="M15.095,5.681c-0.93,0-1.687,0.743-1.687,1.656c0,0.914,0.757,1.657,1.687,1.657s1.687-0.743,1.687-1.657
				C16.782,6.424,16.025,5.681,15.095,5.681z M15.095,7.786c-0.252,0-0.457-0.201-0.457-0.449c0-0.247,0.205-0.448,0.457-0.448
				s0.457,0.201,0.457,0.448C15.552,7.585,15.347,7.786,15.095,7.786z"/>
		</g>
	</g>
	<g>
		<g>
			<path fill="#EF4823" d="M33.007,34.365c-1.002-0.727-2.48-1.625-4.297-2.609c0.111-0.631,0.168-1.277,0.168-1.932
				c0-0.771-0.082-1.535-0.238-2.279c0.568-0.281,1.111-0.555,1.623-0.822c1.506-0.789,2.666-1.482,3.447-2.061
				c0.77-0.566,1.516-1.246,1.227-1.971c-0.266-0.668-1.135-0.822-2.998-0.535c-1.291,0.197-3.064,0.617-5.146,1.219
				c-1.121-1.555-2.623-2.806-4.373-3.631c-0.664-0.313-1.094-0.986-1.094-1.714v-0.833c0-0.334-0.275-0.604-0.615-0.604
				s-0.615,0.27-0.615,0.604v0.833c0,1.189,0.703,2.29,1.791,2.803c2.576,1.216,4.48,3.448,5.307,6.062
				c-1.371,0.652-2.883,1.33-4.482,2.008c-0.254-2.605-2.494-4.648-5.21-4.648c-2.647,0-4.841,1.939-5.187,4.449
				c-1.566-0.736-3.044-1.469-4.384-2.17c0.882-2.455,2.725-4.537,5.177-5.697c1.109-0.523,1.798-1.588,1.798-2.778v-4.637h5.191
				v1.329c0,0.334,0.275,0.604,0.615,0.604s0.615-0.271,0.615-0.604v-1.329h1.865c0.34,0,0.615-0.271,0.615-0.604V10.81
				c0-0.334-0.275-0.604-0.615-0.604H11.808c-0.34,0-0.615,0.271-0.615,0.604v2.007c0,0.334,0.275,0.604,0.615,0.604h1.866v4.637
				c0,0.722-0.421,1.369-1.101,1.689c-1.615,0.763-3.018,1.888-4.104,3.28c-2.062-0.682-3.82-1.17-5.104-1.42
				c-1.854-0.359-2.729-0.236-3.021,0.418c-0.318,0.715,0.401,1.422,1.146,2.018c0.759,0.607,1.89,1.344,3.362,2.191
				c0.504,0.289,1.041,0.586,1.604,0.891c-0.222,0.877-0.336,1.783-0.336,2.699c0,0.504,0.035,1,0.101,1.49
				c-1.859,0.918-3.378,1.76-4.41,2.449c-1.1,0.732-2.073,1.523-1.749,2.336c0.212,0.533,0.815,0.676,1.5,0.676
				c0.249,0,0.508-0.02,0.764-0.045c0.973-0.098,2.304-0.363,3.954-0.787c0.466-0.119,0.951-0.25,1.453-0.393
				c0.484,0.791,1.071,1.527,1.756,2.195C11.643,39.848,14.485,41,17.5,41c0.027,0,0.053,0,0.08,0
				c3.023-0.02,5.861-1.191,7.992-3.299c0.555-0.547,1.043-1.141,1.463-1.771c0.488,0.156,0.961,0.305,1.416,0.439
				c1.631,0.488,2.951,0.803,3.92,0.938c0.313,0.043,0.631,0.078,0.932,0.078c0.611,0,1.141-0.141,1.354-0.621
				C35.011,35.965,34.073,35.139,33.007,34.365z M12.423,12.212v-0.798h10.152v0.798H20.71h-6.421H12.423z M33.544,23.223
				c-0.406,0.395-1.506,1.236-4.449,2.736c-0.252,0.129-0.512,0.26-0.779,0.393c-0.219-0.66-0.502-1.301-0.844-1.912
				C30.979,23.445,32.798,23.201,33.544,23.223z M17.5,25.463c2.208,0,4.005,1.764,4.005,3.934c0,0.002-0.002,0.006-0.002,0.01
				c-1.119,0.463-2.275,0.924-3.451,1.377c-0.195,0.074-0.39,0.148-0.584,0.223c-0.191-0.082-0.383-0.164-0.575-0.246
				c-1.156-0.496-2.293-1.002-3.394-1.506C13.575,27.15,15.34,25.463,17.5,25.463z M17.441,32.311
				c0.558,0.234,1.112,0.465,1.661,0.688c-0.49,0.213-1.033,0.332-1.603,0.332c-0.625,0-1.218-0.143-1.747-0.395
				C16.311,32.732,16.875,32.523,17.441,32.311z M14.57,32.074c-0.375-0.396-0.668-0.867-0.853-1.389
				c0.69,0.313,1.394,0.623,2.107,0.934C15.404,31.773,14.985,31.926,14.57,32.074z M19.085,31.682
				c0.725-0.283,1.439-0.566,2.143-0.852c-0.205,0.512-0.516,0.973-0.906,1.354C19.911,32.02,19.499,31.852,19.085,31.682z
				 M6.049,25.518c-2.881-1.613-3.946-2.496-4.335-2.904c0.747,0.008,2.559,0.32,6.034,1.451c-0.368,0.6-0.677,1.23-0.922,1.881
				C6.56,25.801,6.301,25.658,6.049,25.518z M6.61,34.605c-3.197,0.859-4.585,0.975-5.156,0.957
				c0.516-0.494,1.942-1.484,5.007-3.012c0.168,0.656,0.397,1.295,0.684,1.908C6.965,34.51,6.787,34.559,6.61,34.605z M7.508,31.578
				c-0.002-0.016-0.005-0.031-0.009-0.047c-0.098-0.559-0.148-1.129-0.148-1.707c0-0.713,0.079-1.418,0.231-2.102
				c1.443,0.75,3.035,1.531,4.725,2.316c0.117,0.92,0.482,1.766,1.028,2.469c-1.763,0.609-3.449,1.154-4.994,1.609
				C7.949,33.314,7.668,32.461,7.508,31.578z M17.571,39.793c-2.714,0.014-5.276-1.014-7.214-2.904c-0.534-0.52-1-1.088-1.398-1.691
				c1.651-0.492,3.452-1.08,5.335-1.742c0.887,0.678,1.999,1.082,3.206,1.082c1.134,0,2.183-0.357,3.042-0.961
				c1.859,0.734,3.639,1.393,5.273,1.947C23.989,38.082,20.976,39.77,17.571,39.793z M26.474,34.469
				c-1.529-0.516-3.195-1.125-4.938-1.805c0.576-0.684,0.973-1.516,1.127-2.426c1.725-0.723,3.352-1.445,4.828-2.143
				c0.104,0.566,0.156,1.145,0.156,1.729C27.647,31.498,27.222,33.08,26.474,34.469z M28.173,35.02
				c-0.168-0.051-0.338-0.105-0.51-0.16c0.311-0.602,0.563-1.23,0.756-1.879c2.99,1.641,4.373,2.68,4.867,3.193
				C32.716,36.17,31.333,36.002,28.173,35.02z"/>
		</g>
	</g>
</g>
</svg>
