<?xml version="1.0" encoding="utf-8"?>
<!-- Generator: Adobe Illustrator 16.0.0, SVG Export Plug-In . SVG Version: 6.00 Build 0)  -->
<!DOCTYPE svg PUBLIC "-//W3C//DTD SVG 1.1//EN" "http://www.w3.org/Graphics/SVG/1.1/DTD/svg11.dtd">
<svg version="1.1" id="Layer_1" xmlns="http://www.w3.org/2000/svg" xmlns:xlink="http://www.w3.org/1999/xlink" x="0px" y="0px"
	 width="39px" height="41px" viewBox="0 0 39 41" enable-background="new 0 0 39 41" xml:space="preserve">
<g>
	<g>
		<g>
			<path fill="#EF4823" d="M30.713,10.516c-1.833-1.852-4.269-2.934-6.857-3.046c-0.329-0.014-0.608,0.244-0.623,0.578
				c-0.014,0.334,0.242,0.615,0.572,0.629c2.289,0.101,4.441,1.057,6.063,2.693c3.404,3.438,3.553,8.94,0.445,12.559l-12.881-13.01
				c1.193-1.045,2.624-1.756,4.177-2.07c0.323-0.065,0.534-0.384,0.47-0.711c-0.065-0.327-0.381-0.54-0.705-0.475
				c-1.998,0.405-3.819,1.392-5.266,2.853c-0.021,0.021-0.039,0.042-0.055,0.064l-4.783,3.743l-9.473,7.233
				c-0.127,0.098-0.21,0.24-0.232,0.398c-0.022,0.16,0.02,0.32,0.115,0.449l1.331,1.777c0.118,0.158,0.297,0.24,0.478,0.24
				c0.125,0,0.252-0.041,0.36-0.123l6.001-4.583c0.264-0.201,0.316-0.58,0.116-0.846c-0.199-0.267-0.574-0.319-0.838-0.118
				l-5.524,4.218l-0.61-0.814l8.581-6.553l1.533,1.549c-0.002,0.012-0.003,0.023-0.004,0.036c-0.151,2.267,0.438,4.535,1.664,6.421
				l-5.677,5.732c-0.233,0.236-0.233,0.619,0,0.855l1.562,1.576c0.116,0.119,0.27,0.178,0.422,0.178
				c0.154,0,0.307-0.059,0.424-0.178l5.58-5.637c1.813,1.426,4.017,2.188,6.316,2.188c0.236,0,0.474-0.008,0.711-0.023
				c0.013-0.002,0.024-0.004,0.035-0.004l1.637,1.652l-6.434,8.723l-0.804-0.613l4.177-5.58c0.199-0.266,0.148-0.645-0.116-0.846
				c-0.264-0.201-0.638-0.15-0.838,0.117l-4.538,6.063c-0.199,0.266-0.146,0.645,0.117,0.846l1.761,1.344
				c0.104,0.08,0.231,0.123,0.36,0.123c0.028,0,0.057-0.002,0.084-0.006c0.158-0.023,0.301-0.109,0.396-0.238l6.91-9.371
				c0.102-0.041,0.191-0.111,0.257-0.203l3.679-5.119C34.739,21.115,34.713,14.557,30.713,10.516z M14.291,18.346l2.845,2.873
				l-1.499,1.514C14.831,21.412,14.367,19.898,14.291,18.346z M11.076,30.492l-0.714-0.723l7.62-7.695l0.715,0.721L11.076,30.492z
				 M17.934,25.275l1.609-1.625l3.422,3.455C21.139,27.02,19.397,26.387,17.934,25.275z M26.501,28.969l-13.96-14.101l4.047-3.091
				l12.947,13.077L26.501,28.969z"/>
		</g>
	</g>
	<g>
		<g>
			<path fill="#EF4823" d="M25.447,0.655c-0.863-0.873-2.27-0.873-3.135,0c-0.863,0.873-0.863,2.293,0,3.166
				c0.433,0.437,1,0.654,1.568,0.654c0.567,0,1.135-0.218,1.566-0.654C26.313,2.948,26.313,1.528,25.447,0.655z M24.602,2.966
				c-0.398,0.402-1.045,0.402-1.442,0c-0.397-0.401-0.397-1.055,0-1.457c0.198-0.201,0.46-0.301,0.722-0.301
				c0.261,0,0.521,0.1,0.721,0.301C25,1.912,25,2.565,24.602,2.966z"/>
		</g>
	</g>
	<g>
		<g>
			<path fill="#EF4823" d="M33.03,31.119c-0.419-0.424-0.976-0.656-1.567-0.656s-1.148,0.232-1.567,0.656
				c-0.864,0.873-0.864,2.293,0,3.166c0.419,0.424,0.976,0.656,1.567,0.656s1.148-0.232,1.567-0.656
				C33.895,33.412,33.895,31.992,33.03,31.119z M32.185,33.432c-0.193,0.193-0.449,0.301-0.722,0.301s-0.529-0.107-0.721-0.301
				c-0.398-0.402-0.398-1.057,0-1.457c0.198-0.201,0.459-0.303,0.721-0.303s0.522,0.102,0.722,0.303
				C32.582,32.375,32.582,33.029,32.185,33.432z"/>
		</g>
	</g>
	<g>
		<g>
			<path fill="#EF4823" d="M38.352,21.951c-0.419-0.422-0.976-0.654-1.568-0.654c-0.592,0-1.148,0.232-1.566,0.654
				c-0.42,0.424-0.65,0.984-0.65,1.584c0,0.598,0.231,1.16,0.65,1.584c0.418,0.422,0.975,0.654,1.566,0.654
				c0.593,0,1.149-0.232,1.568-0.654C38.77,24.695,39,24.133,39,23.535C39,22.936,38.77,22.375,38.352,21.951z M37.505,24.264
				c-0.192,0.195-0.448,0.301-0.722,0.301c-0.271,0-0.527-0.105-0.721-0.301s-0.299-0.453-0.299-0.729s0.105-0.533,0.299-0.73
				c0.193-0.193,0.449-0.301,0.721-0.301c0.273,0,0.529,0.107,0.722,0.301C37.902,23.207,37.902,23.861,37.505,24.264z"/>
		</g>
	</g>
	<g>
		<g>
			<path fill="#EF4823" d="M17.756,5.38l-0.373-0.596l0.174-0.683c0.053-0.206-0.008-0.426-0.157-0.577
				c-0.149-0.15-0.366-0.21-0.571-0.158l-0.676,0.176l-0.59-0.378c-0.179-0.114-0.404-0.125-0.592-0.027
				c-0.189,0.096-0.313,0.287-0.326,0.5L14.602,4.34L14.063,4.79c-0.162,0.137-0.242,0.35-0.209,0.56
				c0.033,0.212,0.174,0.39,0.371,0.468l0.648,0.26l0.258,0.655c0.078,0.199,0.254,0.342,0.463,0.375
				c0.031,0.005,0.063,0.008,0.093,0.008c0.177,0,0.347-0.08,0.461-0.22l0.445-0.543l0.696-0.044
				c0.211-0.015,0.399-0.139,0.496-0.329C17.881,5.788,17.869,5.561,17.756,5.38z M15.869,5.342
				c-0.057-0.118-0.152-0.213-0.268-0.272c0.092-0.092,0.152-0.212,0.172-0.342c0.115,0.061,0.248,0.082,0.376,0.06
				c-0.022,0.13-0.001,0.264,0.06,0.38C16.08,5.187,15.961,5.249,15.869,5.342z"/>
		</g>
	</g>
	<g>
		<g>
			<path fill="#EF4823" d="M7.699,25.668c-0.234-0.236-0.612-0.236-0.846,0l-4.347,4.391c-0.233,0.236-0.233,0.619,0,0.855
				c0.117,0.117,0.27,0.176,0.423,0.176c0.153,0,0.306-0.059,0.423-0.176l4.347-4.391C7.933,26.287,7.933,25.904,7.699,25.668z"/>
		</g>
	</g>
	<g>
		<g>
			<path fill="#EF4823" d="M15.18,33.225c-0.232-0.236-0.612-0.236-0.846,0l-6.093,6.154c-0.233,0.236-0.233,0.619,0,0.855
				c0.117,0.117,0.27,0.176,0.423,0.176c0.153,0,0.306-0.059,0.423-0.176l6.093-6.156C15.414,33.844,15.414,33.461,15.18,33.225z"/>
		</g>
	</g>
	<g>
		<g>
			<path fill="#EF4823" d="M8.11,32.809c-0.233-0.236-0.612-0.236-0.846,0l-7.089,7.16c-0.234,0.236-0.234,0.619,0,0.855
				C0.293,40.941,0.445,41,0.599,41s0.307-0.059,0.423-0.176l7.089-7.16C8.344,33.428,8.344,33.045,8.11,32.809z"/>
		</g>
	</g>
</g>
</svg>
