<?xml version="1.0" encoding="utf-8"?>
<!-- Generator: Adobe Illustrator 16.0.0, SVG Export Plug-In . SVG Version: 6.00 Build 0)  -->
<!DOCTYPE svg PUBLIC "-//W3C//DTD SVG 1.1//EN" "http://www.w3.org/Graphics/SVG/1.1/DTD/svg11.dtd">
<svg version="1.1" id="Layer_1" xmlns="http://www.w3.org/2000/svg" xmlns:xlink="http://www.w3.org/1999/xlink" x="0px" y="0px"
	 width="37px" height="41px" viewBox="0 0 37 41" enable-background="new 0 0 37 41" xml:space="preserve">
<g>
	<g>
		<g>
			<path fill="#EF4823" d="M36.391,21.943h-2.764c-0.337,0-0.609,0.271-0.609,0.607c0,7.982-6.513,14.479-14.518,14.479
				c-8.004,0-14.517-6.496-14.517-14.479c0-0.336-0.273-0.607-0.609-0.607H0.609C0.273,21.943,0,22.215,0,22.551
				c0,4.928,1.924,9.561,5.418,13.045S13.559,41,18.5,41s9.587-1.92,13.081-5.404S37,27.479,37,22.551
				C37,22.215,36.728,21.943,36.391,21.943z M18.5,39.785c-9.325,0-16.948-7.404-17.271-16.627h1.547
				c0.321,8.373,7.251,15.086,15.724,15.086s15.403-6.713,15.725-15.086h1.547C35.448,32.381,27.825,39.785,18.5,39.785z"/>
		</g>
	</g>
	<g>
		<g>
			<path fill="#EF4823" d="M18.5,9.152c-1.239,0-2.248,1.005-2.248,2.241s1.008,2.242,2.248,2.242s2.248-1.006,2.248-2.242
				S19.739,9.152,18.5,9.152z M18.5,12.42c-0.567,0-1.029-0.46-1.029-1.026s0.461-1.026,1.029-1.026s1.029,0.46,1.029,1.026
				S19.067,12.42,18.5,12.42z"/>
		</g>
	</g>
	<g>
		<g>
			<path fill="#EF4823" d="M27.977,21.838h-3.676l-1.377-6.889c0.788-0.973,1.262-2.21,1.262-3.555c0-2.47-1.593-4.575-3.807-5.35
				V0.608C20.379,0.272,20.105,0,19.77,0h-2.538c-0.337,0-0.609,0.272-0.609,0.607v5.436c-2.214,0.775-3.807,2.88-3.807,5.35
				c0,1.327,0.46,2.547,1.229,3.515l-0.424,2.154c-0.065,0.33,0.15,0.649,0.48,0.713c0.04,0.008,0.079,0.012,0.118,0.012
				c0.285,0,0.54-0.201,0.597-0.491l0.271-1.373c0.4,0.3,0.841,0.548,1.313,0.736l-2.991,15.096
				c-0.748-0.652-1.113-1.666-0.912-2.68l1.934-9.826c0.065-0.33-0.15-0.649-0.48-0.713c-0.331-0.065-0.65,0.15-0.715,0.479
				l-0.556,2.822H9.024c-0.336,0-0.609,0.271-0.609,0.607v1.871c0,0.336,0.273,0.609,0.609,0.609h3.048l-0.771,3.914
				c-0.333,1.682,0.422,3.359,1.858,4.236l-0.183,1.078c-0.056,0.33,0.167,0.645,0.5,0.701c0.034,0.004,0.068,0.008,0.102,0.008
				c0.292,0,0.55-0.211,0.6-0.506l0.254-1.502l1.571-7.93h4.992l1.573,7.941c0.017,0.082,0.051,0.16,0.099,0.229l0.214,1.262
				c0.051,0.295,0.309,0.506,0.601,0.506c0.033,0,0.067-0.004,0.102-0.01c0.332-0.055,0.556-0.369,0.5-0.699l-0.188-1.111
				c1.4-0.885,2.133-2.543,1.804-4.203l-0.782-3.914h3.06c0.336,0,0.609-0.273,0.609-0.609v-1.871
				C28.586,22.109,28.313,21.838,27.977,21.838z M12.311,23.709H9.633v-0.656h2.807L12.311,23.709z M17.84,1.216h1.32v4.4h-1.32
				V1.216L17.84,1.216z M14.034,11.394c0-2.456,2.003-4.454,4.466-4.454s4.467,1.998,4.467,4.454s-2.004,4.454-4.467,4.454
				S14.034,13.85,14.034,11.394z M20.386,21.838h-3.771l0.961-4.851c0.301,0.049,0.609,0.076,0.924,0.076
				c0.315,0,0.623-0.027,0.924-0.076L20.386,21.838z M16.245,23.709l0.13-0.656h4.251l0.13,0.656H16.245z M23.592,31.756
				l-1.497-7.559c0-0.002-0.001-0.004-0.001-0.006l-0.369-1.863c-0.001-0.004-0.001-0.006-0.002-0.008l-1.121-5.66
				c0.459-0.183,0.889-0.422,1.279-0.712l1.696,8.489c0,0.002,0.001,0.004,0.001,0.004l0.926,4.635
				C24.705,30.09,24.34,31.104,23.592,31.756z M27.367,23.709h-2.692l-0.132-0.656h2.824V23.709z"/>
		</g>
	</g>
	<g>
		<g>
			<path fill="#EF4823" d="M2.356,11.024H0.609C0.273,11.024,0,11.296,0,11.632c0,0.335,0.273,0.607,0.609,0.607h1.747
				c0.336,0,0.609-0.272,0.609-0.607C2.966,11.296,2.693,11.024,2.356,11.024z"/>
		</g>
	</g>
	<g>
		<g>
			<path fill="#EF4823" d="M6.458,11.024H4.711c-0.336,0-0.609,0.272-0.609,0.608c0,0.335,0.273,0.607,0.609,0.607h1.747
				c0.336,0,0.609-0.272,0.609-0.607C7.067,11.296,6.794,11.024,6.458,11.024z"/>
		</g>
	</g>
	<g>
		<g>
			<path fill="#EF4823" d="M10.56,11.024H8.813c-0.336,0-0.609,0.272-0.609,0.608c0,0.335,0.273,0.607,0.609,0.607h1.747
				c0.336,0,0.609-0.272,0.609-0.607C11.169,11.296,10.896,11.024,10.56,11.024z"/>
		</g>
	</g>
	<g>
		<g>
			<path fill="#EF4823" d="M27.884,11.024h-1.747c-0.337,0-0.609,0.272-0.609,0.608c0,0.335,0.272,0.607,0.609,0.607h1.747
				c0.337,0,0.609-0.272,0.609-0.607C28.493,11.296,28.221,11.024,27.884,11.024z"/>
		</g>
	</g>
	<g>
		<g>
			<path fill="#EF4823" d="M31.985,11.024h-1.747c-0.337,0-0.609,0.272-0.609,0.608c0,0.335,0.272,0.607,0.609,0.607h1.747
				c0.337,0,0.609-0.272,0.609-0.607C32.595,11.296,32.322,11.024,31.985,11.024z"/>
		</g>
	</g>
	<g>
		<g>
			<path fill="#EF4823" d="M36.087,11.024H34.34c-0.337,0-0.609,0.272-0.609,0.608c0,0.335,0.272,0.607,0.609,0.607h1.747
				c0.336,0,0.609-0.272,0.609-0.607C36.696,11.296,36.424,11.024,36.087,11.024z"/>
		</g>
	</g>
</g>
</svg>
