<?xml version="1.0" encoding="utf-8"?>
<!-- Generator: Adobe Illustrator 16.0.0, SVG Export Plug-In . SVG Version: 6.00 Build 0)  -->
<!DOCTYPE svg PUBLIC "-//W3C//DTD SVG 1.1//EN" "http://www.w3.org/Graphics/SVG/1.1/DTD/svg11.dtd">
<svg version="1.1" id="Layer_1" xmlns="http://www.w3.org/2000/svg" xmlns:xlink="http://www.w3.org/1999/xlink" x="0px" y="0px"
	 width="37px" height="41px" viewBox="0 0 37 41" enable-background="new 0 0 37 41" xml:space="preserve">
<g>
	<g>
		<path fill="#EF4823" d="M34.863,26.568V14.432C36.092,14.117,37,13.018,37,11.714c0-1.55-1.281-2.81-2.857-2.81
			c-0.82,0-1.56,0.342-2.081,0.887l-6.601-3.703c-0.295-0.166-0.672-0.065-0.84,0.226c-0.17,0.29-0.066,0.66,0.229,0.826l6.58,3.691
			c-0.094,0.277-0.146,0.574-0.146,0.883c0,0.313,0.054,0.615,0.15,0.897l-10.85,6.156c-0.524-0.62-1.315-1.016-2.198-1.016
			c-0.823,0-1.565,0.344-2.087,0.893l-3.021-1.698c-0.295-0.166-0.672-0.065-0.841,0.225s-0.066,0.66,0.229,0.826l3.005,1.69
			c-0.092,0.274-0.142,0.568-0.142,0.873c0,1.341,0.961,2.465,2.241,2.742v12.146c-0.628,0.137-1.179,0.476-1.578,0.945L5.51,30.332
			c0.132-0.323,0.206-0.676,0.206-1.045c0-1.341-0.961-2.465-2.242-2.743V14.456c0.565-0.123,1.069-0.411,1.455-0.81l5.525,3.106
			c0.097,0.055,0.202,0.08,0.305,0.08c0.214,0,0.422-0.109,0.536-0.305c0.169-0.29,0.066-0.66-0.229-0.826l-5.5-3.093
			c0.097-0.281,0.15-0.583,0.15-0.896c0-0.295-0.047-0.579-0.133-0.846l10.902-6.187c0.523,0.574,1.284,0.937,2.128,0.937
			c0.795,0,1.515-0.321,2.033-0.837l2.25,1.262c0.096,0.055,0.201,0.08,0.305,0.08c0.214,0,0.422-0.11,0.535-0.306
			c0.17-0.291,0.066-0.66-0.229-0.826l-2.203-1.236c0.107-0.296,0.167-0.614,0.167-0.945C21.471,1.26,20.189,0,18.613,0
			c-1.576,0-2.858,1.26-2.858,2.809c0,0.285,0.043,0.559,0.124,0.818L4.966,9.819C4.443,9.258,3.692,8.904,2.858,8.904
			C1.282,8.904,0,10.164,0,11.714c0,1.341,0.961,2.464,2.242,2.742v12.088C0.961,26.822,0,27.945,0,29.287
			c0,1.549,1.282,2.809,2.858,2.809c0.755,0,1.442-0.29,1.954-0.762l10.813,6.136c-0.062,0.23-0.096,0.472-0.096,0.722
			c0,1.549,1.282,2.809,2.858,2.809c1.576,0,2.858-1.26,2.858-2.809c0-0.19-0.02-0.376-0.057-0.556l11.04-6.265
			c0.507,0.45,1.178,0.725,1.914,0.725c1.576,0,2.857-1.26,2.857-2.809C37,27.982,36.092,26.884,34.863,26.568z M18.613,1.211
			c0.896,0,1.625,0.717,1.625,1.598s-0.729,1.598-1.625,1.598c-0.896,0-1.625-0.717-1.625-1.598S17.717,1.211,18.613,1.211z
			 M1.232,11.714c0-0.882,0.729-1.598,1.625-1.598c0.896,0,1.625,0.716,1.625,1.598c0,0.881-0.729,1.598-1.625,1.598
			C1.962,13.312,1.232,12.595,1.232,11.714z M2.858,30.885c-0.896,0-1.625-0.717-1.625-1.598s0.729-1.598,1.625-1.598
			c0.896,0,1.625,0.717,1.625,1.598S3.754,30.885,2.858,30.885z M34.143,10.116c0.896,0,1.625,0.716,1.625,1.598
			c0,0.881-0.729,1.598-1.625,1.598s-1.626-0.717-1.626-1.598C32.517,10.832,33.246,10.116,34.143,10.116z M16.761,20.561
			c0-0.881,0.729-1.598,1.625-1.598c0.896,0,1.626,0.717,1.626,1.598s-0.729,1.598-1.626,1.598
			C17.491,22.158,16.761,21.441,16.761,20.561z M18.387,39.789c-0.896,0-1.625-0.717-1.625-1.598s0.729-1.598,1.625-1.598
			c0.896,0,1.626,0.717,1.626,1.598S19.283,39.789,18.387,39.789z M31.284,29.287c0,0.388,0.08,0.757,0.226,1.093l-10.825,6.143
			c-0.403-0.535-0.997-0.925-1.682-1.074V23.303c1.28-0.277,2.242-1.401,2.242-2.742c0-0.247-0.033-0.486-0.095-0.715l10.922-6.198
			c0.41,0.423,0.951,0.721,1.559,0.829v12.047C32.299,26.762,31.284,27.909,31.284,29.287z M34.143,30.885
			c-0.896,0-1.626-0.717-1.626-1.598s0.729-1.598,1.626-1.598s1.625,0.717,1.625,1.598S35.039,30.885,34.143,30.885z"/>
	</g>
</g>
</svg>
